<svg width="241" height="241" viewBox="0 0 241 241" fill="none" xmlns="http://www.w3.org/2000/svg">
<path fill-rule="evenodd" clip-rule="evenodd" d="M120.91 240.71C187.184 240.71 240.91 186.984 240.91 120.71C240.91 54.4358 187.184 0.710022 120.91 0.710022C54.6359 0.710022 0.909973 54.4358 0.909973 120.71C0.909973 186.984 54.6359 240.71 120.91 240.71ZM20.22 104.63H9.04999L17.11 126.94H28.29L20.22 104.63ZM202.91 97.47C185.75 79.68 160.2 68.4 131.65 68.4C81.79 68.4 41.05 102.81 38.27 146.18H27.34C30.14 100.15 73.33 63.59 126.2 63.59C158.04 63.59 186.37 76.86 204.48 97.47H202.91ZM71.61 104.63H61.1V146.17H71.61V104.63ZM190.65 121.52H225.55V129.28H190.65V121.52ZM230.28 136.57H190.65V146.17H230.28V136.57ZM190.65 104.63H232.78L228.44 114.23H190.65V104.63ZM147.22 104.63H136.71V146.17H147.22V104.63ZM170.17 104.63H180.68V146.17H170.17V104.63ZM164.68 119.41H152.7V131.39H164.68V119.41ZM90.8 104.63H99.27L116.22 143.23V104.63H126.73V146.17H117.51H109.04L92.09 107.57V146.17H81.58V104.63H90.8Z" fill="#0058AB"/>
</svg>
